<?xml version="1.0" standalone="no"?>
<!DOCTYPE svg PUBLIC "-//W3C//DTD SVG 20010904//EN"
 "http://www.w3.org/TR/2001/REC-SVG-20010904/DTD/svg10.dtd">
<svg version="1.0" xmlns="http://www.w3.org/2000/svg"
 width="600.000000pt" height="600.000000pt" viewBox="0 0 600.000000 600.000000"
 preserveAspectRatio="xMidYMid meet">
<metadata>
Created by potrace 1.11, written by Peter Selinger 2001-2013
</metadata>
<g transform="translate(0.000000,600.000000) scale(0.100000,-0.100000)"
fill="#000000" stroke="none">
<path d="M1557 4674 c-1 -1 -47 -5 -102 -9 -55 -3 -118 -8 -140 -10 -22 -3
-74 -7 -115 -10 -74 -5 -98 -7 -255 -20 -44 -4 -96 -9 -115 -10 -225 -15 -252
-21 -269 -54 -26 -48 -13 -86 174 -486 18 -38 126 -272 240 -520 114 -247 228
-493 252 -545 24 -52 117 -252 205 -445 89 -192 173 -365 187 -384 32 -42 92
-71 151 -71 25 0 106 16 180 36 74 19 144 36 156 38 11 2 25 6 31 9 5 3 23 9
39 12 16 3 72 16 124 30 52 14 106 28 120 31 14 3 34 8 45 11 11 4 25 8 30 9
41 8 265 66 285 74 14 5 39 11 56 15 31 6 31 5 104 -127 268 -486 468 -831
505 -870 35 -38 73 -55 116 -53 35 2 167 42 299 90 36 13 193 69 350 125 401
143 669 239 710 255 19 7 107 39 195 71 195 69 235 90 235 119 0 29 -4 35
-332 475 -153 206 -278 380 -278 385 0 10 28 20 78 29 13 3 49 12 80 21 31 10
64 19 72 20 8 2 101 27 205 55 105 29 202 54 217 57 31 6 63 37 55 55 -4 11
-69 93 -380 480 -183 226 -237 289 -264 303 -30 16 -95 16 -173 0 -8 -2 -33
-6 -55 -10 -22 -3 -47 -8 -55 -10 -8 -2 -37 -7 -65 -11 -27 -3 -59 -8 -70 -10
-11 -3 -36 -7 -55 -10 -19 -2 -59 -10 -89 -15 -30 -6 -64 -12 -75 -14 -12 -1
-34 -5 -51 -8 -16 -3 -50 -9 -75 -12 -97 -14 -121 -48 -77 -112 12 -17 58 -82
102 -145 318 -447 376 -531 371 -535 -4 -4 -153 -42 -227 -58 -33 -7 -297 -71
-459 -110 -58 -14 -116 -28 -129 -31 -13 -3 -51 -12 -85 -20 -34 -8 -70 -17
-81 -19 -11 -3 -47 -11 -80 -19 -96 -24 -347 -83 -381 -90 -29 -6 -33 -4 -66
51 -19 32 -257 429 -528 883 -712 1192 -660 1109 -703 1112 -41 2 -138 4 -140
2z m538 -946 c706 -1220 668 -1151 650 -1161 -8 -4 -63 -19 -123 -33 -193 -46
-215 -51 -451 -108 -129 -31 -244 -58 -255 -60 -26 -5 -75 -16 -99 -23 -13 -3
-22 7 -36 39 -10 24 -71 151 -136 283 -64 132 -134 276 -155 320 -21 44 -81
170 -135 280 -54 110 -128 263 -165 340 -37 77 -109 226 -160 330 -208 428
-250 519 -243 526 4 4 40 10 78 13 93 8 180 15 235 21 25 3 81 8 125 10 44 3
94 7 110 10 17 2 68 7 115 11 47 3 86 7 87 8 1 0 21 2 45 3 l43 3 470 -812z
m2703 -20 c8 -10 99 -127 203 -259 207 -262 216 -275 207 -285 -6 -5 -229 -65
-293 -78 -11 -2 -76 -19 -145 -36 -69 -18 -135 -33 -146 -34 -17 -1 -62 55
-217 266 -275 374 -263 355 -216 363 28 4 130 22 174 30 17 2 41 7 55 10 40 8
132 24 175 31 22 3 65 12 95 19 59 13 84 7 108 -27z m32 -1251 c278 -382 276
-378 207 -393 -18 -3 -36 -9 -41 -12 -5 -2 -106 -38 -225 -78 -119 -40 -416
-141 -661 -224 -559 -191 -514 -178 -539 -156 -21 19 -134 207 -361 601 -73
127 -134 233 -136 236 -2 4 60 23 139 43 147 37 365 93 642 166 88 23 167 44
175 46 8 2 51 13 95 25 44 11 87 23 95 25 8 2 83 21 165 43 83 22 158 39 167
38 10 -1 127 -153 278 -360z"/>
</g>
</svg>
